<?xml version="1.0" standalone="no"?>
<!DOCTYPE svg PUBLIC "-//W3C//DTD SVG 20010904//EN"
 "http://www.w3.org/TR/2001/REC-SVG-20010904/DTD/svg10.dtd">
<svg version="1.0" xmlns="http://www.w3.org/2000/svg"
 width="458.000000pt" height="458.000000pt" viewBox="0 0 458.000000 458.000000"
 preserveAspectRatio="xMidYMid meet">
<metadata>
Created by potrace 1.14, written by Peter Selinger 2001-2017
</metadata>
<g transform="translate(0.000000,458.000000) scale(0.100000,-0.100000)"
fill="#000000" stroke="none">
<path d="M2262 4357 c-6 -7 -83 -199 -171 -427 -160 -413 -168 -440 -127 -440
7 0 31 14 54 31 23 17 42 27 42 23 0 -4 -33 -95 -72 -201 -56 -147 -77 -193
-88 -190 -8 3 -208 115 -445 250 -236 135 -431 242 -433 238 -1 -4 74 -223
168 -486 93 -263 168 -480 167 -481 -2 -2 -227 -44 -501 -93 -275 -50 -501
-93 -503 -95 -4 -4 20 -19 544 -326 183 -107 333 -199 333 -203 0 -5 -142
-179 -316 -388 -173 -209 -317 -386 -320 -393 -4 -9 138 11 488 70 271 46 501
84 511 84 16 0 17 -31 17 -511 0 -288 4 -509 9 -507 5 1 156 176 336 388 180
212 328 386 330 388 1 1 150 -173 331 -387 181 -214 332 -390 336 -390 4 -1 9
228 10 508 2 280 6 512 10 516 3 4 231 -32 505 -78 274 -47 499 -84 501 -82 2
2 -142 179 -320 394 -178 215 -324 395 -325 399 -2 4 193 121 433 261 239 140
437 258 439 262 3 3 -35 14 -83 22 -48 9 -276 51 -507 94 l-421 77 172 480
c95 265 169 482 165 484 -4 1 -206 -111 -450 -249 -243 -138 -444 -249 -445
-247 -6 7 -146 391 -146 400 0 5 21 -7 46 -27 52 -39 66 -42 84 -20 10 13 10
21 0 43 -15 32 -157 400 -247 637 -69 182 -84 205 -111 172z m144 -1127 c71
-192 132 -350 135 -350 5 0 421 234 616 346 l42 24 -23 -62 c-91 -245 -228
-640 -223 -644 4 -5 407 -81 655 -124 39 -7 72 -16 72 -19 0 -3 -145 -90 -321
-192 l-320 -187 239 -288 c132 -159 238 -290 237 -292 -2 -2 -163 24 -357 57
-195 34 -360 61 -366 61 -9 0 -12 -97 -14 -377 l-3 -377 -239 282 c-132 155
-244 282 -250 281 -6 0 -119 -128 -251 -284 l-240 -283 -3 374 c-2 289 -5 374
-15 374 -6 0 -172 -27 -366 -60 -195 -33 -356 -58 -358 -56 -2 2 102 130 231
286 130 156 233 286 231 291 -3 4 -149 92 -326 195 l-321 188 366 67 c202 36
368 68 370 70 2 2 -52 161 -120 353 -68 192 -123 350 -122 352 2 1 147 -80
323 -180 176 -101 323 -180 326 -177 4 3 64 162 135 353 71 192 129 348 130
348 1 0 59 -157 130 -350z"/>
</g>
</svg>
